<svg xmlns="http://www.w3.org/2000/svg" enable-background="new 0 0 64 64" viewBox="0 0 64 64" id="money-back-guarantee"><path d="M32 46c-7.72 0-14-6.28-14-14s6.28-14 14-14 14 6.28 14 14S39.72 46 32 46zM32 19c-7.168 0-13 5.832-13 13s5.832 13 13 13 13-5.832 13-13S39.168 19 32 19zM21.501 58.996c-.062 0-.124-.011-.184-.035-.605-.239-1.2-.499-1.783-.777-.25-.119-.355-.417-.236-.667.119-.249.418-.355.666-.236.563.269 1.137.519 1.721.75.257.102.383.392.281.649C21.889 58.876 21.7 58.996 21.501 58.996z"></path><path d="M24.5 60c-.276 0-.5-.224-.5-.5v-3.812C13.815 52.254 7 42.781 7 32c0-6.77 2.662-13.109 7.496-17.85 4.832-4.74 11.199-7.264 18.002-7.146.12.002.235.048.325.128C32.928 7.228 33 7.375 33 7.517v.776L35.793 5.5 33 2.707v.806c0 .134-.054.263-.149.356-.096.094-.246.134-.359.144L32 4C16.561 4 4 16.561 4 32c0 9.799 5.234 19.013 13.66 24.047.236.142.314.449.173.686s-.449.313-.687.173C8.421 51.692 3 42.149 3 32 3 16.009 16.01 3 32 3V1.5c0-.202.122-.385.309-.462s.402-.034.545.108l4 4c.195.195.195.512 0 .707l-4 4c-.143.143-.359.186-.545.108C32.122 9.885 32 9.702 32 9.5V8c-.001 0-.003 0-.004 0-6.326 0-12.275 2.427-16.8 6.864C10.556 19.416 8 25.501 8 32c0 10.466 6.692 19.649 16.653 22.85C24.859 54.917 25 55.109 25 55.326V59.5C25 59.776 24.776 60 24.5 60zM31.5 63c-.13 0-.258-.051-.354-.146l-4-4c-.195-.195-.195-.512 0-.707l4-4c.143-.143.359-.186.545-.108C31.878 54.115 32 54.298 32 54.5V56c.001 0 .003 0 .004 0 6.326 0 12.275-2.427 16.8-6.864C53.444 44.584 56 38.499 56 32c0-10.467-6.692-19.65-16.653-22.85C39.141 9.083 39 8.891 39 8.674V4.5C39 4.224 39.224 4 39.5 4S40 4.224 40 4.5v3.812C50.185 11.746 57 21.219 57 32c0 6.77-2.662 13.109-7.496 17.85-4.832 4.739-11.204 7.259-18.002 7.146-.12-.002-.235-.048-.325-.128C31.072 56.772 31 56.625 31 56.483v-.776L28.207 58.5 31 61.293v-.806c0-.134.054-.263.149-.356.096-.095.207-.159.359-.144L32 60c15.439 0 28-12.561 28-28 0-9.799-5.234-19.013-13.66-24.047-.236-.142-.314-.449-.173-.686.142-.238.448-.313.687-.173C55.579 12.308 61 21.851 61 32c0 15.991-13.01 29-29 29v1.5c0 .202-.122.385-.309.462C31.63 62.988 31.564 63 31.5 63z"></path><path d="M44.251 6.768c-.072 0-.146-.016-.215-.049-.563-.269-1.137-.519-1.721-.75-.257-.102-.383-.392-.281-.649s.396-.382.648-.281c.605.239 1.2.499 1.783.777.25.119.355.417.236.667C44.616 6.663 44.437 6.768 44.251 6.768zM33.5 43h-3c-.276 0-.5-.224-.5-.5V40h-3.5c-.276 0-.5-.224-.5-.5v-3c0-.276.224-.5.5-.5H34v-2h-7.5c-.276 0-.5-.224-.5-.5v-9c0-.276.224-.5.5-.5H30v-2.5c0-.276.224-.5.5-.5h3c.276 0 .5.224.5.5V24h3.5c.276 0 .5.224.5.5v3c0 .276-.224.5-.5.5H30v2h7.5c.276 0 .5.224.5.5v9c0 .276-.224.5-.5.5H34v2.5C34 42.776 33.776 43 33.5 43zM31 42h2v-2.5c0-.276.224-.5.5-.5H37v-8h-7.5c-.276 0-.5-.224-.5-.5v-3c0-.276.224-.5.5-.5H37v-2h-3.5c-.276 0-.5-.224-.5-.5V22h-2v2.5c0 .276-.224.5-.5.5H27v8h7.5c.276 0 .5.224.5.5v3c0 .276-.224.5-.5.5H27v2h3.5c.276 0 .5.224.5.5V42z"></path><path d="M32,53.006c-0.128,0-0.256-0.049-0.354-0.146l-3.213-3.212l-4.207,1.713c-0.123,0.05-0.26,0.049-0.383-0.002
	c-0.122-0.052-0.219-0.149-0.269-0.272L21.912,47H17.5c-0.276,0-0.5-0.224-0.5-0.5v-4.542l-4.187-1.764
	c-0.122-0.052-0.219-0.149-0.269-0.272c-0.05-0.123-0.05-0.26,0.002-0.383l1.713-4.065l-3.119-3.12
	c-0.195-0.195-0.195-0.512,0-0.707l3.212-3.212l-1.713-4.208c-0.104-0.256,0.019-0.547,0.274-0.651L17,21.912V17.5
	c0-0.276,0.224-0.5,0.5-0.5h4.543l1.764-4.187c0.052-0.122,0.149-0.219,0.272-0.269c0.123-0.05,0.26-0.049,0.383,0.002l4.064,1.713
	l3.12-3.119c0.195-0.195,0.512-0.195,0.707,0l3.213,3.212l4.207-1.713c0.123-0.05,0.26-0.049,0.383,0.002
	c0.122,0.052,0.219,0.149,0.269,0.272L42.088,17H46.5c0.276,0,0.5,0.224,0.5,0.5v4.542l4.187,1.764
	c0.122,0.052,0.219,0.149,0.269,0.272c0.05,0.123,0.05,0.26-0.002,0.383l-1.713,4.065l3.119,3.12c0.195,0.195,0.195,0.512,0,0.707
	l-3.212,3.212l1.713,4.208c0.104,0.256-0.019,0.547-0.274,0.651L47,42.088V46.5c0,0.276-0.224,0.5-0.5,0.5h-4.543l-1.764,4.187
	c-0.052,0.122-0.149,0.219-0.272,0.269c-0.122,0.05-0.259,0.049-0.383-0.002l-4.064-1.713l-3.12,3.119
	C32.256,52.957,32.128,53.006,32,53.006z M28.553,48.559c0.13,0,0.258,0.051,0.354,0.146L32,51.799l3.004-3.003
	c0.144-0.144,0.361-0.186,0.548-0.107l3.914,1.649l1.698-4.032C41.242,46.121,41.424,46,41.625,46H46v-4.248
	c0-0.203,0.123-0.386,0.312-0.463l3.935-1.602l-1.649-4.052c-0.076-0.186-0.033-0.4,0.109-0.542L51.799,32l-3.004-3.004
	c-0.144-0.144-0.187-0.36-0.107-0.548l1.649-3.915l-4.031-1.698C46.12,22.757,46,22.576,46,22.375V18h-4.248
	c-0.203,0-0.387-0.123-0.463-0.312l-1.602-3.934l-4.052,1.649c-0.185,0.075-0.399,0.033-0.542-0.109L32,12.201l-3.004,3.003
	c-0.145,0.145-0.36,0.186-0.548,0.107l-3.914-1.649l-1.698,4.032C22.758,17.879,22.576,18,22.375,18H18v4.248
	c0,0.203-0.123,0.386-0.312,0.463l-3.935,1.602l1.649,4.052c0.076,0.186,0.033,0.4-0.109,0.542L12.201,32l3.004,3.004
	c0.144,0.144,0.187,0.36,0.107,0.548l-1.649,3.915l4.031,1.698C17.88,41.243,18,41.424,18,41.625V46h4.248
	c0.203,0,0.387,0.123,0.463,0.312l1.602,3.934l4.052-1.649C28.425,48.571,28.489,48.559,28.553,48.559z"></path></svg>