<svg xmlns="http://www.w3.org/2000/svg" viewBox="0 0 66 66" id="online-support"><path d="M55.98 56.15c.54 0 .98-.44.98-.98v-2.41c0-7.09-5.77-12.86-12.86-12.86h-3.85v-3.39c.38-.33.74-.68 1.07-1.08.6-.72 1.13-1.48 1.62-2.27h.64c2.67 0 4.84-2.12 4.95-4.77h.37c1.73 0 3.15-1.41 3.15-3.13v-5.52c0-1.73-1.41-3.13-3.15-3.13h-2.39c.89-4.25.49-7.31-1.2-9.09-1.36-1.44-3.17-1.62-4.18-1.6-1.06-2.12-2.93-3.54-5.44-4.13-4.28-1.01-10.19.62-13.73 3.79-.4.35-.76.73-1.07 1.11a.985.985 0 0 0 .13 1.39c.18.15.41.23.63.23.28 0 .56-.12.76-.35.26-.31.55-.61.87-.9 3.05-2.74 8.31-4.21 11.96-3.34 2.14.5 3.61 1.72 4.36 3.61.18.44.64.69 1.1.6.02 0 1.96-.34 3.18.94 1.28 1.35 1.48 4.09.59 7.94-.25.03-.62.03-1.06-.11-.97-.32-2.44-1.37-3.97-4.58a.986.986 0 0 0-1.65-.2c-1.77 2.17-4.67 2.49-7.74 2.84-3.35.38-7.05.8-9.09 3.99-.34-1.65-.62-3.86-.35-6.08a.988.988 0 0 0-.86-1.1c-.53-.06-1.03.32-1.1.86-.36 2.93.12 5.77.57 7.61-1.33.76-2.19 2.27-2.19 4.17 0 2.22 1.78 4.05 4.1 4.38.77 2.48 2.03 4.82 3.7 6.83.28.34.59.65.92.94v3.53H21.9c-7.09 0-12.86 5.77-12.86 12.86v10.76c0 .54.44.98.98.98h45.97c.54 0 .98-.44.98-.98V59.6c0-.54-.44-.98-.98-.98s-.98.44-.98.98v2.94h-7.3V56.9c0-.54-.44-.98-.98-.98s-.98.44-.98.98v5.63H20.27V56.9c0-.54-.44-.98-.98-.98s-.98.44-.98.98v5.63H11v-9.77c0-6.01 4.89-10.89 10.89-10.89h3.86c.06 3.95 3.28 7.15 7.24 7.15 3.97 0 7.19-3.2 7.25-7.15h3.86c6.01 0 10.89 4.89 10.89 10.89v2.41c.01.54.45.98.99.98zM45.62 26.16c0-.02 0-.04.01-.06.07-.39.13-.79.17-1.18l.06-.61c.03-.41.05-.82.06-1.23 0-.12.02-.24.02-.36v-.82l.06-.22c.43.26.84.89.84 2.39-.01.67-.58 1.48-1.22 2.09zm-1.56 4.99c.26-.55.49-1.1.69-1.67.11-.31.21-.62.31-.93.21-.03.4-.09.6-.15h.92a3.02 3.02 0 0 1-2.52 2.75zm6.03-11.41v5.52c0 .64-.53 1.16-1.18 1.16h-.76c.41-.69.65-1.48.65-2.36 0-3.21-1.56-4.18-2.76-4.45l.13-1.05h2.74c.65.01 1.18.54 1.18 1.18zm-31.08 4.48c0-.8.27-1.62.81-2.15.01.03.02.06.03.07.06.17.18.31.31.42.02 1.3.15 2.59.41 3.86-.88-.41-1.56-1.19-1.56-2.2zm3.23-.45c-.03-.34-.04-.7-.04-1.04v-1.71c0-.1-.03-.18-.05-.27 1.39-3.25 4.53-3.62 8.12-4.03 2.86-.33 5.81-.66 8.03-2.52 1.32 2.35 2.83 3.82 4.5 4.37.51.17.96.22 1.36.22l-.19 1.49c0 .04-.01.08-.01.12v2.32c0 .06 0 .11-.01.17 0 .01-.01.02-.01.03-.01 1.42-.2 2.84-.56 4.25-.14.55-.3 1.09-.5 1.64-.29.82-.66 1.61-1.08 2.38h-5.66a2.84 2.84 0 0 0-2.66-1.87c-1.57 0-2.85 1.28-2.85 2.85s1.28 2.85 2.85 2.85c1.22 0 2.26-.78 2.66-1.87h4.42c-.25.34-.5.68-.77 1a7.481 7.481 0 0 1-5.77 2.71h-1.91c-2.24 0-4.35-.99-5.78-2.71-2.41-2.9-3.87-6.59-4.09-10.38zm12.14 8.41c0 .49-.4.88-.88.88-.49 0-.88-.4-.88-.88s.4-.88.88-.88.88.39.88.88zM33 47.05c-2.91 0-5.28-2.37-5.28-5.29v-4.02c1.35.71 2.85 1.1 4.41 1.1h1.91c1.5 0 2.94-.36 4.24-1.01v3.93c0 2.92-2.37 5.29-5.28 5.29z"></path><path d="M28.57 25.01a1.44 1.44 0 1 0-1.44-1.44c-.01.79.64 1.44 1.44 1.44z"></path><circle cx="36.84" cy="23.56" r="1.44"></circle></svg>