<svg xmlns="http://www.w3.org/2000/svg" xmlns:xlink="http://www.w3.org/1999/xlink" data-name="Layer 1" viewBox="0 0 100 100" id="protection"><defs><linearGradient id="a" x1="3.69" x2="96.31" y1="50" y2="50" gradientUnits="userSpaceOnUse"><stop offset="0" stop-color="#6cc4c7"></stop><stop offset=".81" stop-color="#35398e"></stop></linearGradient><linearGradient id="b" x1="53.96" x2="77.62" y1="66.48" y2="66.48" xlink:href="#a"></linearGradient></defs><path fill="url(#a)" d="M80.49,39.75a70.33,70.33,0,0,0,1.57-19.68L82,18.85l-1.21-.14a71.15,71.15,0,0,1-20.43-5.44A71.41,71.41,0,0,1,43.93,3.32L43.53,3H42.35l-.4.32a71.41,71.41,0,0,1-16.41,10A71.24,71.24,0,0,1,5.11,18.71l-1.21.14-.08,1.22A70.66,70.66,0,0,0,13.33,60a70.8,70.8,0,0,0,28.88,27l.31.15H43v-.31a30.51,30.51,0,1,0,37.48-47ZM15.83,58.47a67.7,67.7,0,0,1-9.17-37,73.84,73.84,0,0,0,20-5.52A74.13,74.13,0,0,0,42.94,6.25a74.13,74.13,0,0,0,16.24,9.68,73.84,73.84,0,0,0,20,5.52,67.13,67.13,0,0,1-1.42,17,30.24,30.24,0,0,0-12-2.47A30.51,30.51,0,0,0,39.64,82.2,67.68,67.68,0,0,1,15.83,58.47Zm50,35.62A27.61,27.61,0,1,1,93.4,66.48,27.64,27.64,0,0,1,65.79,94.09Z"></path><path fill="url(#b)" d="M66.65,51.3c4.45,0,8.07,3.12,8.07,7h2.9c0-4.95-4.08-9-9.37-9.75v-5H65.34v4.95c-5.44.58-9.67,4.75-9.67,9.79s4.25,9.24,9.71,9.8v.07c4.7,0,8.52,3.29,8.52,7.35s-3.82,7.35-8.52,7.35-8.51-3.3-8.51-7.35H54c0,5.64,5.1,10.23,11.38,10.25v3.72h2.91v-4c4.91-1.15,8.55-5.16,8.55-9.92,0-5.28-4.45-9.63-10.15-10.2v-.06c-4.45,0-8.07-3.12-8.07-7S62.2,51.3,66.65,51.3Z"></path></svg>