<svg xmlns="http://www.w3.org/2000/svg" width="2666.559" height="2666.559" fill-rule="evenodd" clip-rule="evenodd" image-rendering="optimizeQuality" shape-rendering="geometricPrecision" text-rendering="geometricPrecision" viewBox="0 0 70553 70553" id="stitching-machine"><path fill-rule="nonzero" d="M19763 35244l0 3493c0,1301 -1055,2356 -2355,2356 -1301,0 -2356,-1055 -2356,-2356l0 -3488 -516 0c-4488,0 -8157,-3669 -8157,-8158l0 -11923c0,-3044 2486,-5530 5530,-5530 14686,0 29371,0 44057,0 3248,0 5908,2640 5934,5885l988 0c1598,0 2903,1305 2903,2903l0 8589c0,1599 -1305,2903 -2903,2903l-988 0 0 26680c0,2376 -1941,4317 -4317,4317l-48504 0c-2376,0 -4317,-1941 -4317,-4317l0 -7074c0,-2376 1941,-4317 4317,-4317l29433 0 0 -17436 -10795 0c-343,4096 -3744,7356 -7901,7472l-53 1zm42137 -17957l0 10867 988 0c625,0 1139,-514 1139,-1139l0 -8589c0,-624 -514,-1139 -1139,-1139l-988 0zm-14548 6422l5002 0c987,0 1791,804 1791,1791l0 2223c0,987 -804,1791 -1791,1791l-5002 0c-987,0 -1792,-804 -1792,-1791l0 -2223c0,-987 805,-1791 1792,-1791zm5002 1763l-5002 0 -28 28 0 2223 28 27 5002 0 27 -27 0 -2223 -27 -28zm-8413 -5856l11823 0c487,0 882,395 882,882l0 24353c0,487 -395,882 -882,882l-11823 0c-487,0 -882,-395 -882,-882l0 -24353c0,-487 395,-882 882,-882zm10941 1764l-10059 0 0 22589 10059 0 0 -22589zm-38066 13869l0 3488c0,527 639,790 1010,419 107,-107 173,-255 173,-419l0 -3488 -1183 0zm22578 11722l-30315 0c-1402,0 -2553,1150 -2553,2553l0 7074c0,1402 1151,2553 2553,2553l48504 0c1403,0 2554,-1151 2554,-2553l0 -41026c0,-2292 -1879,-4171 -4171,-4171l-44057 0c-2070,0 -3766,1697 -3766,3767l0 11923c0,3515 2878,6394 6393,6394l5053 0c134,0 164,1 179,1 3440,-95 6214,-2945 6214,-6394l-3 -203c0,-487 395,-882 882,-882l12533 0c487,0 882,395 882,882l0 19200c0,487 -395,882 -882,882z"></path></svg>