<svg xmlns="http://www.w3.org/2000/svg" enable-background="new 0 0 512 512" viewBox="0 0 512 512" id="worldwide-shipping"><path fill="#00cbf6" d="M192.4,19C82.9,19.2-14,115.7,1.7,236.6c12.9,98.5,96.5,166.9,188.6,167.5c-2.2-3-2.9-7-2.2-10.7c-10.5-0.2-21-1.4-31.3-3.4c-2.7-14.8,4.7-20.7,9-25.7c16.1-18.9,16.7-46.7,1.5-66.1c-4.5-5.7-10-10.4-16.2-13.7c-8-4.4-13.2-12.6-14-22c-1.2-15-8.6-28.3-20.9-37.6c-18.1-13.6-43.5-13.8-61.7-0.6c-5.6,4-10.3,8.9-13.8,14.6c-4.9,7.8-13.2,12.6-22.3,12.8c-1.2,0-2.2,0.1-3.3,0.2c-1.2-5.3-2.2-10.8-3-16.7c-3-23.5-1.5-46.8,4.2-68.9c5.6,2,10.4,5.9,13.8,11.2c16.1,25.6,51.1,32.4,75.5,14c12.2-9.2,19.6-22.5,20.8-37.5c0.8-9.4,6.1-17.6,14-22c28.9-15.6,36.3-54.4,14.7-79.8c-2.8-3.3-7.9-7.1-9.3-16.2c15.1-4,30.7-6.1,46.3-6.1c23.9-0.1,48,4.6,70.9,14.3c-6,2.6-11.6,6.3-16.3,11c-9.6,9.6-15.1,22.5-15.3,36.1c-0.1,9-4.9,17.3-12.7,22.2c-5.7,3.6-10.6,8.2-14.6,13.8c-23.5,32.2-2.8,79.2,38.1,82.6c9.4,0.8,17.6,6,21.9,13.9c16.1,29.4,54.9,36,79.8,14.7c3.1-2.6,10.9-12,24.5-9.2c8,1.7-0.5,29.2-3,37c4.4-0.3,7.7,1.1,10,3.6c7.7-24.1,10.4-48.9,8.6-73C376.5,94.2,289.4,18.8,192.4,19z M18.8,262.4c12.6-0.2,24.2-6.8,31-17.7c2.9-4.5,6.6-8.4,11.1-11.7c14.4-10.6,34.6-10.4,49,0.4c9.8,7.4,15.7,18,16.6,29.9c1.1,13,8.4,24.3,19.5,30.4c4.9,2.7,9.3,6.4,12.9,11c11.9,15.2,11.4,37.8-1.3,52.6c-2.6,3.1-13.6,12.8-12,30c-65.5-18-111.4-67.3-127.8-124.9C18.2,262.4,18.5,262.4,18.8,262.4z M147.2,59.2c16.3,19.1,12.3,50.7-11.7,63.6c-11.1,6.1-18.4,17.5-19.5,30.5c-1,11.9-6.9,22.5-16.6,29.9c-19.6,14.8-47.4,9-60.1-11.2c-4.7-7.5-11.8-13.1-19.8-15.8C37.6,100,82,56.9,135.7,39.2C138,50.6,144.6,56.1,147.2,59.2z M373.9,219.4c0,0,0,0.1,0,0.1c-1.1-0.1-2.1-0.3-3.1-0.5c-15.6-3.2-24.9,4.3-33.5,11.5c-19.1,16.4-50.5,12.3-63.6-11.7c-6.1-11.1-17.5-18.4-30.4-19.4c-32.1-2.7-49.2-39.8-30.4-65.7c3.2-4.5,7.2-8.2,11.7-11c10.9-6.8,17.5-18.5,17.7-31.1c0.2-10.9,4.5-21.1,12.2-28.7c6.3-6.3,14.3-10.4,23-11.7c55.5,29.4,91.3,84.9,96,146.3C374.1,204.7,374.2,212,373.9,219.4z"></path><path fill="#0635c9" d="M508.4,360c-1.6-3.1-21.9-35.3-21.6-34.8c-5.7-9.2-15.7-14.7-26.5-14.7h-29.7V284c0-11.2-9.1-20.3-20.3-20.3H205.7c-11.2,0-20.3,9.1-20.3,20.3c0,15.5,0-56,0,151c0,11.8,9.6,21.5,21.5,21.5h26.3c-0.1,1-0.2,2-0.2,3c0,18.5,15.1,33.6,33.7,33.6c18.5,0,33.6-15.1,33.6-33.6c0-1-0.1-2-0.2-3h113.3c-0.1,1-0.2,2-0.2,3c0,18.5,15.1,33.6,33.7,33.6c18.5,0,33.6-15.1,33.6-33.6c0-1-0.1-2-0.2-3h10.1c11.8,0,21.5-9.6,21.5-21.5v-60.6C512,368.8,510.5,364.2,508.4,360z M430.6,321.2h29.7c7.2,0,13.7,3.6,17.5,9.7c0.3,0.5,21.8,34.7,20.4,32.5c1.5,2.4,2.3,5.1,2.5,5.7h-70V321.2z M196.1,284c0-5.3,4.3-9.7,9.7-9.7h204.5c5.3,0,9.7,4.3,9.7,9.7c0,1.8,0,113.4,0,113.9c0,2.6-2.1,4.7-4.7,4.7H196.1V284z M266.7,482.4c-12.7,0-23-10.3-23-22.9c0-12.7,10.3-23,23-23c12.7,0,23,10.3,23,23C289.7,472.1,279.3,482.4,266.7,482.4z M446.9,482.4c-12.7,0-23-10.3-23-22.9c0-12.7,10.3-23,23-23c12.7,0,23,10.3,23,23C469.9,472.1,459.6,482.4,446.9,482.4z M490.5,445.8h-12.9c-5.2-11.8-17-20-30.7-20c-13.7,0-25.5,8.2-30.8,20H297.4c-5.2-11.8-17-20-30.7-20c-13.7,0-25.5,8.2-30.8,20h-29c-6,0-10.8-4.8-10.8-10.8v-21.8h219.2c8.5,0,15.3-6.9,15.3-15.3v-18h70.8V435C501.3,441,496.5,445.8,490.5,445.8z"></path></svg>